<svg viewBox="0 0 17 17" fill="none" xmlns="http://www.w3.org/2000/svg">
<path d="M8.60028 3.69331C10.1025 3.69331 11.1158 4.3422 11.6936 4.88442L13.9514 2.67998C12.5647 1.39109 10.7603 0.599976 8.60028 0.599976C5.47139 0.599976 2.76917 2.39553 1.45361 5.00886L4.04028 7.01775C4.68917 5.08886 6.48472 3.69331 8.60028 3.69331Z" fill="#EA4335"/>
<path d="M16.2801 8.77774C16.2801 8.11996 16.2268 7.63996 16.1112 7.14218H8.6001V10.1111H13.009C12.9201 10.8488 12.4401 11.96 11.3734 12.7066L13.8979 14.6622C15.409 13.2666 16.2801 11.2133 16.2801 8.77774Z" fill="#4285F4"/>
<path d="M4.04899 10.1822C3.8801 9.68441 3.78232 9.15107 3.78232 8.59996C3.78232 8.04885 3.8801 7.51552 4.0401 7.01774L1.45343 5.00885C0.911209 6.09329 0.600098 7.31107 0.600098 8.59996C0.600098 9.88885 0.911209 11.1066 1.45343 12.1911L4.04899 10.1822Z" fill="#FBBC05"/>
<path d="M8.60018 16.6C10.7602 16.6 12.5735 15.8889 13.898 14.6622L11.3735 12.7066C10.698 13.1777 9.79129 13.5066 8.60018 13.5066C6.48462 13.5066 4.68907 12.1111 4.04907 10.1822L1.4624 12.1911C2.77796 14.8044 5.47129 16.6 8.60018 16.6Z" fill="#34A853"/>
</svg>
