<svg width="22" height="22" viewBox="0 0 22 22" fill="none" xmlns="http://www.w3.org/2000/svg"><path fill-rule="evenodd" clip-rule="evenodd" d="M11.0009 0C8.0135 0 7.63858 0.0130625 6.46525 0.0664583C5.29421 0.120083 4.49487 0.305479 3.79546 0.5775C3.07198 0.858458 2.45827 1.23429 1.84685 1.84594C1.23498 2.45735 0.859146 3.07106 0.577271 3.79431C0.304562 4.49396 0.118937 5.29352 0.0662291 6.4641C0.01375 7.63744 0 8.01258 0 11C0 13.9874 0.0132916 14.3612 0.0664584 15.5345C0.120312 16.7056 0.305708 17.5049 0.5775 18.2043C0.858688 18.9278 1.23452 19.5415 1.84617 20.1529C2.45735 20.7648 3.07106 21.1415 3.79408 21.4225C4.49396 21.6945 5.29352 21.8799 6.46433 21.9335C7.63767 21.9869 8.01235 22 10.9995 22C13.9872 22 14.361 21.9869 15.5343 21.9335C16.7053 21.8799 17.5056 21.6945 18.2055 21.4225C18.9287 21.1415 19.5415 20.7648 20.1527 20.1529C20.7646 19.5415 21.1404 18.9278 21.4223 18.2045C21.6927 17.5049 21.8783 16.7053 21.9333 15.5347C21.986 14.3614 21.9998 13.9874 21.9998 11C21.9998 8.01258 21.986 7.63767 21.9333 6.46433C21.8783 5.29329 21.6927 4.49396 21.4223 3.79454C21.1404 3.07106 20.7646 2.45735 20.1527 1.84594C19.5408 1.23406 18.9289 0.858229 18.2048 0.5775C17.5035 0.305479 16.7037 0.120083 15.5327 0.0664583C14.3594 0.0130625 13.9858 0 10.9975 0H11.0009ZM10.6339 1.98216H10.6341L11.0008 1.98227C13.9378 1.98227 14.2859 1.99281 15.4457 2.04552C16.5182 2.09456 17.1003 2.27377 17.488 2.42433C18.0014 2.6237 18.3673 2.86204 18.7521 3.24704C19.1371 3.63204 19.3754 3.9987 19.5753 4.51204C19.7258 4.89933 19.9053 5.48141 19.9541 6.55391C20.0068 7.71349 20.0183 8.06183 20.0183 10.9975C20.0183 13.9331 20.0068 14.2814 19.9541 15.441C19.905 16.5135 19.7258 17.0956 19.5753 17.4829C19.3759 17.9962 19.1371 18.3617 18.7521 18.7465C18.3671 19.1315 18.0016 19.3698 17.488 19.5692C17.1007 19.7205 16.5182 19.8992 15.4457 19.9482C14.2861 20.001 13.9378 20.0124 11.0008 20.0124C8.06354 20.0124 7.71544 20.001 6.55586 19.9482C5.48336 19.8987 4.90127 19.7195 4.51329 19.569C3.99996 19.3696 3.63329 19.1313 3.24829 18.7463C2.86329 18.3613 2.62496 17.9955 2.42513 17.482C2.27456 17.0947 2.09513 16.5126 2.04631 15.4401C1.99361 14.2805 1.98306 13.9322 1.98306 10.9947C1.98306 8.05724 1.99361 7.71074 2.04631 6.55116C2.09536 5.47866 2.27456 4.89658 2.42513 4.50883C2.6245 3.99549 2.86329 3.62883 3.24829 3.24383C3.63329 2.85883 3.99996 2.62049 4.51329 2.42066C4.90104 2.26941 5.48336 2.09066 6.55586 2.04139C7.57061 1.99556 7.96386 1.98181 10.014 1.97952V1.98227C10.2055 1.98197 10.4114 1.98206 10.6337 1.98216H10.6338H10.6339ZM15.5526 5.12826C15.5526 4.39928 16.1439 3.80872 16.8726 3.80872V3.80826C17.6014 3.80826 18.1926 4.39951 18.1926 5.12826C18.1926 5.85701 17.6014 6.44826 16.8726 6.44826C16.1439 6.44826 15.5526 5.85701 15.5526 5.12826ZM11.001 5.35109C7.88143 5.35121 5.35224 7.88048 5.35224 11C5.35224 14.1197 7.88155 16.6479 11.0012 16.6479C14.1208 16.6479 16.6492 14.1197 16.6492 11C16.6492 7.8804 14.1206 5.35109 11.001 5.35109ZM14.6679 11.0001C14.6679 8.97491 13.0261 7.33338 11.0012 7.33338C8.97606 7.33338 7.33454 8.97491 7.33454 11.0001C7.33454 13.025 8.97606 14.6667 11.0012 14.6667C13.0261 14.6667 14.6679 13.025 14.6679 11.0001Z" fill="white"/></svg>
