<svg fill="none" width="22" height="21" viewBox="0 0 22 21" xmlns="http://www.w3.org/2000/svg"><path d="m5.3049 2.4472c0 1.3604-1.024 2.4489-2.6682 2.4489h-0.03014c-1.5831 0-2.6065-1.0885-2.6065-2.4489 0-1.3892 1.0546-2.4472 2.6677-2.4472 1.6131 0 2.6065 1.0581 2.6371 2.4472zm-0.31051 4.3827v14.168h-4.7155v-14.168h4.7155zm17.005 14.168 2e-4 -8.1235c0-4.3518-2.3263-6.3772-5.4293-6.3772-2.5036 0-3.6245 1.3752-4.2503 2.3399v-2.0068h-4.7161c0.06215 1.3295 0 14.168 0 14.168h4.7161v-7.9126c0-0.4234 0.0306-0.8458 0.1553-1.149 0.3408-0.8459 1.1167-1.7218 2.4195-1.7218 1.707 0 2.3893 1.2992 2.3893 3.2031v7.5799h4.7153z" fill="#fff" clipRule="evenodd" fillRule="evenodd"/></svg>