<svg fill="none" width="22" height="22" viewBox="0 0 22 22" xmlns="http://www.w3.org/2000/svg"><path d="m10.993 21.811h-0.0045c-1.8246-7e-4 -3.6173-0.4584-5.2096-1.327l-5.7791 1.516 1.5466-5.6491c-0.95401-1.6533-1.456-3.5287-1.4552-5.45 0.0023915-6.0107 4.8928-10.901 10.902-10.901 2.9163 0.0012586 5.6534 1.1366 7.7116 3.1972 2.0583 2.0605 3.1911 4.7994 3.19 7.7123-0.0024 6.0093-4.8909 10.899-10.902 10.902zm-4.9463-3.3006 0.33087 0.1964c1.3912 0.8256 2.9859 1.2624 4.6118 1.263h0.0037c4.9941 0 9.0588-4.0648 9.0608-9.061 1e-3 -2.4211-0.9406-4.6976-2.6513-6.4103-1.7108-1.7127-3.9858-2.6564-6.406-2.6572-4.998 0-9.0627 4.0644-9.0647 9.0602-7e-4 1.7121 0.47834 3.3795 1.3854 4.8221l0.21544 0.3428-0.91536 3.3436 3.4294-0.8996zm10.065-5.2538c0.1899 0.0918 0.3182 0.1538 0.373 0.2453 0.0681 0.1136 0.0681 0.6589-0.1588 1.2953-0.2271 0.6363-1.3153 1.217-1.8387 1.2952-0.4692 0.0701-1.0631 0.0994-1.7156-0.108-0.3957-0.1255-0.903-0.2931-1.5529-0.5738-2.5536-1.1026-4.2793-3.5776-4.6055-4.0454-0.02284-0.0328-0.03882-0.0557-0.04774-0.0676l-0.0022-0.0029c-0.14415-0.1924-1.11-1.4811-1.11-2.8149 0-1.2547 0.61633-1.9124 0.90003-2.2151 0.01944-0.02074 0.03732-0.03982 0.05332-0.0573 0.24968-0.27271 0.5448-0.34089 0.72638-0.34089s0.36337 0.00168 0.52207 0.00965c0.01958 9.8e-4 0.03995 8.6e-4 0.06101 7.4e-4 0.15874-9.3e-4 0.35664-0.00209 0.55186 0.46685 0.0751 0.18045 0.18499 0.44797 0.30088 0.73013 0.2344 0.57065 0.49339 1.2012 0.53896 1.2924 0.06811 0.13636 0.1135 0.29537 0.02271 0.47724-0.01363 0.02727-0.02624 0.05301-0.03828 0.0776-0.0682 0.13922-0.11836 0.24163-0.23411 0.37677-0.04551 0.05315-0.09255 0.11044-0.13959 0.16772-0.09371 0.11413-0.18741 0.22824-0.26901 0.30952-0.13636 0.13583-0.27832 0.28324-0.11942 0.55594 0.15889 0.2727 0.70557 1.1646 1.5153 1.887 0.87045 0.7764 1.627 1.1045 2.0106 1.2709 0.0748 0.0325 0.1355 0.0588 0.18 0.081 0.2723 0.1364 0.4312 0.1136 0.5901-0.0681 0.1589-0.1818 0.6809-0.7954 0.8625-1.0681 0.1816-0.2726 0.3632-0.2272 0.6129-0.1363 0.2497 0.091 1.5889 0.7499 1.8613 0.8862 0.0532 0.0266 0.1029 0.0506 0.149 0.0729z" fill="#fff" clipRule="evenodd" fillRule="evenodd"/></svg>